<svg width="45" height="45" viewBox="0 0 45 45" fill="none" xmlns="http://www.w3.org/2000/svg">
<path d="M31.7196 24.4025L31.6788 24.3617L28.9551 21.6379L28.8843 21.5672L28.9551 21.4965L36.1533 14.2982L36.2241 14.2275L36.2948 14.2982L37.227 15.2304C37.785 15.7883 38.7237 15.6782 39.1332 14.9957L39.2189 15.0472L39.1332 14.9957L44.7263 5.67382C45.014 5.19445 44.9384 4.58082 44.5431 4.18559L44.6138 4.11487L44.5431 4.18558L40.8143 0.45684L40.8142 0.456832C40.419 0.0615353 39.8053 -0.0139348 39.326 0.273601M31.7196 24.4025L39.326 0.273601M31.7196 24.4025L31.7753 24.3875C35.3317 23.4357 39.1877 24.4126 41.8677 27.0925C45.2382 30.4629 45.7513 35.4955 43.6402 39.4149C43.4575 39.7539 43.1254 39.9867 42.7444 40.0426C42.3633 40.0983 41.9782 39.9709 41.706 39.6986L41.6454 39.7592L41.706 39.6986L36.7585 34.7511C36.2054 34.198 35.3058 34.1979 34.7527 34.7511C34.1995 35.304 34.1995 36.2037 34.7526 36.7568L39.7002 41.7043C39.9725 41.9767 40.1 42.3617 40.0441 42.7427C39.9882 43.1237 39.7555 43.4558 39.4164 43.6385C35.4823 45.7576 30.4531 45.2252 27.094 41.866C24.408 39.18 23.4394 35.3221 24.389 31.7737L24.404 31.7179L24.3631 31.6771L23.5039 30.8179L23.4332 30.7472L23.3625 30.8179L11.1853 42.9954C8.65412 45.5266 4.53553 45.5265 2.00441 42.9954C-0.535578 40.4554 -0.534026 36.3529 2.00441 33.8145L1.93369 33.7438L2.00441 33.8145L14.1817 21.637L14.2524 21.5663L14.1817 21.4955L13.3226 20.6366L13.2818 20.5958L13.2261 20.6107C9.66969 21.5625 5.81373 20.5857 3.13371 17.9057C-0.236809 14.5352 -0.749975 9.50271 1.36115 5.5833C1.54384 5.24426 1.87596 5.01148 2.25696 4.95561L2.25699 4.9556C2.63789 4.89964 3.02297 5.02723 3.29533 5.29959L8.24284 10.2472C8.24284 10.2472 8.24284 10.2472 8.24285 10.2472C8.79597 10.8004 9.69556 10.8003 10.2487 10.2472L31.7196 24.4025ZM39.326 0.273601L39.2746 0.187848L10.2487 10.2472C10.8018 9.69424 10.8018 8.79455 10.2487 8.24144L5.30117 3.29393C5.02883 3.02159 4.90131 2.6366 4.95718 2.25558C5.01314 1.87455 5.24585 1.54243 5.58488 1.35975C9.51897 -0.759372 14.5482 -0.226914 17.9073 3.13213C20.5933 5.81815 21.5619 9.67611 20.6123 13.2245L20.5974 13.2803L20.6382 13.3211L23.3619 16.0448L23.4326 16.1155L23.5033 16.0448L30.7017 8.84649L30.7724 8.77577L30.7017 8.70506L29.7694 7.7729C29.21 7.21345 29.3243 6.27462 30.0041 5.86675L39.326 0.273601ZM39.8192 2.90765L39.764 2.85244L39.697 2.89261L32.7056 7.08744L32.5958 7.15333L32.6863 7.2439L37.756 12.3134L37.8466 12.404L37.9125 12.2941L42.1072 5.30283L42.1474 5.23588L42.0922 5.18067L39.8192 2.90765ZM32.566 10.5695L32.4953 10.4988L32.4246 10.5695L25.2262 17.7678L25.1555 17.8385L25.2262 17.9092L27.0906 19.7735L27.1613 19.8442L27.2321 19.7735L34.4304 12.5752L34.5011 12.5045L34.4304 12.4338L32.566 10.5695ZM16.0459 23.3601L15.9752 23.2893L15.9045 23.3601L3.72731 35.5376C2.13997 37.1249 2.14097 39.6863 3.72731 41.2726C5.30857 42.8538 7.88115 42.8538 9.46233 41.2726L21.6395 29.0951L21.7102 29.0244L21.6395 28.9537L16.0459 23.3601ZM42.0227 36.5693L42.1445 36.6912L42.1898 36.525C42.9337 33.8004 42.2007 30.8716 40.1447 28.8155C37.9687 26.6396 34.6889 25.9008 31.7882 26.9334C31.3451 27.091 30.8508 26.9797 30.5182 26.6471L18.3528 14.4816L18.286 14.5484L18.3528 14.4816C18.0202 14.1491 17.9087 13.6548 18.0665 13.2116C19.099 10.3109 18.3603 7.03109 16.1843 4.85512C14.1284 2.79922 11.1993 2.06603 8.47486 2.81009L8.30869 2.85547L8.43049 2.97727L11.9717 6.51845C13.4746 8.02152 13.4746 10.4673 11.9717 11.9702C10.4686 13.473 8.02283 13.4731 6.51994 11.9702L2.97876 8.429L2.85695 8.30719L2.81158 8.47337C2.0677 11.1979 2.80071 14.1269 4.85661 16.1828L4.92732 16.1121L4.85661 16.1828C7.03258 18.3587 10.3123 19.0974 13.2131 18.0649C13.6573 17.9068 14.1512 18.0193 14.4831 18.3512L26.6486 30.5167L26.7193 30.446L26.6486 30.5167C26.9812 30.8492 27.0927 31.3435 26.9349 31.7867C25.9024 34.6875 26.6411 37.9673 28.8171 40.1432C30.873 42.199 33.802 42.9321 36.5266 42.1883L36.6927 42.1429L36.5709 42.0211L33.0297 38.4799C31.5268 36.9768 31.5268 34.5311 33.0297 33.0282C34.5328 31.5253 36.9786 31.5254 38.4815 33.0282L42.0227 36.5693Z" fill="white" stroke="white" stroke-width="0.2"/>
</svg>
