<svg width="90" height="90" viewBox="0 0 90 90" fill="none" xmlns="http://www.w3.org/2000/svg">
<circle cx="45" cy="45" r="41.5" stroke="#86EC00" stroke-opacity="0.5" stroke-width="7"/>
<path d="M38.8772 55.9035C38.8772 54.4101 39.0172 53.0101 39.2972 51.7035C39.6238 50.3501 40.2072 49.1135 41.0472 47.9935C41.8872 46.8735 43.0772 45.8701 44.6172 44.9835C45.2705 44.5635 46.1105 44.0735 47.1372 43.5135C48.2105 42.9535 49.2372 42.3235 50.2172 41.6235C51.1972 40.8768 52.0138 40.0135 52.6672 39.0335C53.3672 38.0068 53.7172 36.8401 53.7172 35.5335C53.7172 34.2268 53.3905 33.1301 52.7372 32.2435C52.1305 31.3568 51.3138 30.6801 50.2872 30.2135C49.3072 29.7468 48.2338 29.5135 47.0672 29.5135C45.7138 29.5135 44.5005 29.8168 43.4272 30.4235C42.3538 30.9835 41.4438 31.6835 40.6972 32.5235C39.9505 33.3635 39.3205 34.2268 38.8072 35.1135L32.7172 30.9135C33.5572 29.0001 34.7005 27.3668 36.1472 26.0135C37.6405 24.6601 39.3438 23.6335 41.2572 22.9335C43.2172 22.2335 45.2472 21.8835 47.3472 21.8835C49.1205 21.8835 50.8705 22.1635 52.5972 22.7235C54.3238 23.2368 55.8872 24.0535 57.2872 25.1735C58.6872 26.2935 59.8072 27.7168 60.6472 29.4435C61.4872 31.1701 61.9072 33.2468 61.9072 35.6735C61.9072 37.1668 61.7205 38.4968 61.3472 39.6635C61.0205 40.8301 60.5305 41.8801 59.8772 42.8135C59.2705 43.7001 58.5005 44.5168 57.5672 45.2635C56.6338 46.0101 55.6305 46.7335 54.5572 47.4335C53.3438 48.1801 52.1072 48.9035 50.8472 49.6035C49.6338 50.3035 48.6072 51.1435 47.7672 52.1235C46.9738 53.0568 46.5772 54.3168 46.5772 55.9035H38.8772ZM39.0172 72.2135V62.5535H46.7872V72.2135H39.0172Z" fill="#86EC00" fill-opacity="0.5"/>
</svg>
