<svg width="55" height="55" viewBox="0 0 55 55" fill="none" xmlns="http://www.w3.org/2000/svg">
<path d="M43.536 45.8331C23.9844 45.8609 9.14585 30.8445 9.16677 11.4639C9.16677 10.1983 10.1928 9.1665 11.4584 9.1665H17.507C18.6426 9.1665 19.6074 10.001 19.7742 11.1243C20.1739 13.8167 20.9578 16.4379 22.102 18.9077L22.3375 19.416C22.665 20.1228 22.443 20.9625 21.8091 21.4152C19.936 22.7529 19.2201 25.4455 20.6794 27.5465C22.5106 30.183 24.8189 32.4909 27.4549 34.3213C29.5558 35.7801 32.248 35.0643 33.5856 33.1915C34.0386 32.5573 34.8788 32.3353 35.586 32.6628L36.092 32.8972C38.5619 34.0414 41.1833 34.8253 43.8759 35.2249C44.9994 35.3917 45.8334 36.3564 45.8334 37.4921V43.5415C45.8334 44.8071 44.8049 45.8331 43.5392 45.8331L43.536 45.8331Z" fill="#2E3A59"/>
</svg>
